#!OML:ASF X:\für Bonn\!DataBase\2005_08_12_Daniel\c3d\Daniel.ASF
:FULLY-SPECIFIED
:DEGREES
267
root 15.4148 1.42874 0.822046 -804.427 -85.7095 -376.883
lowerback 56.2274 -4.60245 8.20769
upperback 17.7787 -5.17511 -3.31671
thorax -1.65362 -3.74748 -5.1779
lowerneck 6.80038 2.11195 -6.37977
upperneck 13.9705 1.97323 1.47111
head 3.27562 0.489768 1.58393
rclavicle -1.39087e-014 -5.32308e-014
rhumerus -71.045 32.3688 -116.726
rradius 55.7666
rwrist -15.6904
rhand -54.0168 -335.264
rfingers 7.12502
rthumb -26.4394 -363.44
lclavicle -1.39087e-014 -5.32308e-014
lhumerus -749.516 12.1745 -640.125
lradius 59.749
lwrist 34.8518
lhand -31.0439 366.528
lfingers 7.12502
lthumb -4.32555 396.464
rfemur 342.988 -17.113 376.163
rtibia 63.2739
rfoot 19.9238 -7.25629
rtoes 13.2995
lfemur -42.1172 45.9989 -9.60894
ltibia 122.33
lfoot 27.7358 -5.45061
ltoes 9.4227
268
root 15.4195 1.42301 0.827222 -804.461 -85.6783 -377.205
lowerback 55.9235 -4.56147 8.09481
upperback 17.8183 -5.19854 -3.35152
thorax -1.60322 -3.7575 -5.1678
lowerneck 6.95668 2.20651 -6.61104
upperneck 13.8494 2.06322 1.64256
head 3.19963 0.530577 1.67827
rclavicle -1.20265e-014 -1.81764e-014
rhumerus -70.8267 32.9576 -116.83
rradius 55.8932
rwrist -18.0177
rhand -53.5496 -336.675
rfingers 7.12502
rthumb -25.9921 -364.917
lclavicle -1.20265e-014 -1.81764e-014
lhumerus -749.029 12.062 -640.279
lradius 59.8974
lwrist 34.6639
lhand -29.9077 366.333
lfingers 7.12502
lthumb -3.22828 396.289
rfemur 343.447 -17.0757 376.021
rtibia 63.1214
rfoot 19.9447 -7.02524
rtoes 13.1798
lfemur -41.5907 45.1983 -9.25914
ltibia 121.685
lfoot 27.3171 -4.66604
ltoes 9.51951
269
root 15.4232 1.41682 0.832243 -804.47 -85.6636 -377.572
lowerback 55.6466 -4.519 7.98009
upperback 17.8471 -5.21936 -3.39473
thorax -1.56621 -3.76652 -5.16535
lowerneck 7.11823 2.2849 -6.64637
upperneck 13.7569 2.14817 1.70397
head 3.1341 0.574114 1.70126
rclavicle 3.54023e-014 3.6887e-014
rhumerus -70.4657 33.4811 -116.861
rradius 55.9108
rwrist -20.2405
rhand -53.0002 -338.219
rfingers 7.12502
rthumb -25.4659 -366.537
lclavicle 3.54023e-014 3.6887e-014
lhumerus -748.527 11.9346 -640.46
lradius 59.9967
lwrist 34.4379
lhand -28.8842 366.074
lfingers 7.12502
lthumb -2.23987 396.042
rfemur 343.929 -17.0452 375.883
rtibia 62.9775
rfoot 19.9589 -6.82654
rtoes 13.1121
lfemur -41.0117 44.4124 -8.86162
ltibia 121.038
lfoot 26.8527 -3.96437
ltoes 9.69286
270
root 15.4283 1.41028 0.83834 -804.494 -85.6516 -377.894
lowerback 55.3233 -4.46403 7.8507
upperback 17.8838 -5.2342 -3.43672
thorax -1.51622 -3.77254 -5.15933
lowerneck 7.27837 2.33896 -6.55661
upperneck 13.624 2.21521 1.68695
head 3.05665 0.61453 1.67525
rclavicle 3.97445e-014 -7.24322e-015
rhumerus -69.9931 34.0009 -116.823
rradius 55.8821
rwrist -22.3579
rhand -52.4486 -339.934
rfingers 7.12502
rthumb -24.9375 -368.327
lclavicle 3.97445e-014 -7.24322e-015
lhumerus -748.033 11.7961 -640.667
lradius 60.0775
lwrist 34.1885
lhand -27.921 365.686
lfingers 7.12502
lthumb -1.30964 395.661
rfemur 344.363 -17.0257 375.76
rtibia 62.839
rfoot 19.9998 -6.57094
rtoes 12.8834
lfemur -40.4806 43.6219 -8.52101
ltibia 120.367
lfoot 26.3766 -3.34828
ltoes 9.77136
271
root 15.4342 1.40502 0.84377 -804.72 -85.6191 -378.033
lowerback 54.9949 -4.37375 7.6827
upperback 17.9402 -5.22802 -3.45887
thorax -1.43818 -3.77314 -5.12484
lowerneck 7.44296 2.37751 -6.44801
upperneck 13.402 2.26796 1.64776
head 2.9489 0.652004 1.63727
rclavicle 3.68994e-015 -1.52319e-014
rhumerus -69.3348 34.4553 -116.622
rradius 55.7758
rwrist -24.4075
rhand -51.8061 -341.521
rfingers 7.12502
rthumb -24.3216 -369.998
lclavicle 3.68994e-015 -1.52319e-014
lhumerus -747.495 11.6396 -640.852
lradius 60.101
lwrist 33.9185
lhand -26.9443 365.11
lfingers 7.12502
lthumb -0.366309 395.09
rfemur 344.83 -16.9774 375.609
rtibia 62.6985
rfoot 20.0087 -6.3579
rtoes 12.6656
lfemur -39.8819 42.8269 -8.19322
ltibia 119.68
lfoot 25.8599 -2.82169
ltoes 9.81983
272
root 15.439 1.39912 0.849994 -804.752 -85.6056 -378.35
lowerback 54.6601 -4.28533 7.51032
upperback 17.9657 -5.21776 -3.45025
thorax -1.38888 -3.77318 -5.05439
lowerneck 7.60256 2.42067 -6.4102
upperneck 13.2201 2.32143 1.61721
head 2.85621 0.684749 1.61524
rclavicle 1.26104e-014 8.26696e-014
rhumerus -68.5877 34.8828 -116.312
rradius 55.589
rwrist -26.3309
rhand -51.117 -343.377
rfingers 7.12502
rthumb -23.6608 -371.941
lclavicle 1.26104e-014 8.26696e-014
lhumerus -747.01 11.5385 -641.006
lradius 60.1087
lwrist 33.5201
lhand -25.914 364.449
lfingers 7.12502
lthumb 0.628835 394.428
rfemur 345.28 -16.9426 375.476
rtibia 62.565
rfoot 20.0083 -6.18053
rtoes 12.649
lfemur -39.33 42.0173 -7.8799
ltibia 118.991
lfoot 25.3796 -2.23146
ltoes 9.8913
273
root 15.4443 1.39333 0.856836 -804.97 -85.6106 -378.502
lowerback 54.3311 -4.20521 7.35111
upperback 17.9897 -5.20899 -3.43392
thorax -1.33925 -3.77422 -4.98049
lowerneck 7.72685 2.47799 -6.41844
upperneck 13.0901 2.39172 1.60277
head 2.78687 0.722395 1.60778
rclavicle -5.80948e-014 -7.29043e-014
rhumerus -67.6464 35.3204 -115.884
rradius 55.2506
rwrist -28.2022
rhand -50.346 -345.229
rfingers 7.12502
rthumb -22.9211 -373.886
lclavicle -5.80948e-014 -7.29043e-014
lhumerus -746.512 11.3896 -641.147
lradius 60.0057
lwrist 33.0218
lhand -24.9161 363.656
lfingers 7.12502
lthumb 1.59262 393.629
rfemur 345.753 -16.8792 375.36
rtibia 62.4344
rfoot 20.0376 -6.00745
rtoes 12.6115
lfemur -38.701 41.2216 -7.51405
ltibia 118.286
lfoot 24.895 -1.70105
ltoes 9.90823
274
root 15.4503 1.38838 0.863167 -804.971 -85.5939 -378.858
lowerback 53.9539 -4.13586 7.20097
upperback 18.0348 -5.21093 -3.43619
thorax -1.26435 -3.77739 -4.92934
lowerneck 7.77903 2.51997 -6.41068
upperneck 13.0091 2.44888 1.57491
head 2.74787 0.752928 1.59492
rclavicle 2.38542e-015 -5.19822e-014
rhumerus -66.3984 35.6256 -115.284
rradius 54.7196
rwrist -29.968
rhand -49.5117 -347.142
rfingers 7.12502
rthumb -22.1203 -375.897
lclavicle 2.38542e-015 -5.19822e-014
lhumerus -745.986 11.1988 -641.307
lradius 59.8152
lwrist 32.3802
lhand -23.8836 362.795
lfingers 7.12502
lthumb 2.5898 392.759
rfemur 346.216 -16.832 375.223
rtibia 62.3175
rfoot 20.0548 -5.85534
rtoes 12.6423
lfemur -38.1158 40.3707 -7.24566
ltibia 117.558
lfoot 24.4707 -1.14975
ltoes 9.91648
